<?xml version="1.0" encoding="UTF-8" standalone="no"?>
<!-- Created with Inkscape (http://www.inkscape.org/) -->

<svg
   version="1.1"
   id="svg132"
   width="876"
   height="1000"
   viewBox="0 0 876 1000"
   sodipodi:docname="capacete.svg"
   inkscape:version="1.2 (dc2aedaf03, 2022-05-15)"
   xmlns:inkscape="http://www.inkscape.org/namespaces/inkscape"
   xmlns:sodipodi="http://sodipodi.sourceforge.net/DTD/sodipodi-0.dtd"
   xmlns="http://www.w3.org/2000/svg"
   xmlns:svg="http://www.w3.org/2000/svg">
  <defs
     id="defs136" />
  <sodipodi:namedview
     id="namedview134"
     pagecolor="#ffffff"
     bordercolor="#000000"
     borderopacity="0.25"
     inkscape:showpageshadow="2"
     inkscape:pageopacity="0.0"
     inkscape:pagecheckerboard="0"
     inkscape:deskcolor="#d1d1d1"
     showgrid="false"
     inkscape:zoom="0.634"
     inkscape:cx="504.73186"
     inkscape:cy="246.05678"
     inkscape:window-width="1600"
     inkscape:window-height="837"
     inkscape:window-x="-8"
     inkscape:window-y="-8"
     inkscape:window-maximized="1"
     inkscape:current-layer="g138" />
  <g
     inkscape:groupmode="layer"
     inkscape:label="Image"
     id="g138">
    <g
       id="g2870"
       transform="matrix(1.5852676,0,0,1.5852676,-202.76948,-230.99937)">
      <path
         style="fill:#e6a31d;fill-opacity:1;stroke:#d7d745;stroke-width:2.39244;stroke-opacity:1"
         d="m 665.51946,450.70978 c -0.96664,24.67215 -9.8807,48.14176 -28.68981,70.5836 L 411.2776,659.70032 c -28.3551,17.51093 -61.46031,25.52166 -103.17311,16.31719 -49.72923,-9.71558 -98.26404,-22.71583 -142.09503,-48.65158 -30.43104,-22.4622 -15.32293,-40.65511 0.78865,-58.75394 l 55.85838,-66.73606 c 0.52576,-6.63308 -1.1791,-17.5145 -0.65334,-27.11252 l 13.80127,-7.09779 c 14.17037,-93.05476 17.83249,-221.12292 147.26997,-222.70433 53.87506,-34.48587 87.90334,-36.3856 129.14959,2.67278 l 26.81388,13.40694 c 42.38249,5.03323 73.5677,36.19343 84.77918,113.95899 l 16.56151,21.78338 1.18296,20.01473 c 14.90695,7.4859 20.15347,19.76429 23.95795,33.91167 z"
         id="path918"
         sodipodi:nodetypes="cccccccccccccccc" />
      <path
         style="fill:none;stroke:#d7d745;stroke-width:2.39244;stroke-opacity:1"
         d="m 574.38485,558.7705 56.32317,-47.95835 c 2.39887,1.4495 34.96272,-23.38147 26.20979,-61.34207 l -14.49903,-23.97917 2.78828,21.74855 -8.92249,1.67297 -8.36483,59.11145 -8.36482,-54.09255 -11.15311,-6.69187 -28.44041,20.07559 8.36483,62.45738 -104.83918,51.02545 -10.31662,-63.85152 -64.688,9.20131 3.62476,74.16814 c -2.60239,-0.27883 -5.20478,-0.55765 -7.80718,-0.83648 l -40.70883,1.67297 -16.72965,12.82606 -100.93559,-31.22869 c -1.34375,-73.31422 7.02392,-123.68284 36.80524,-128.81834 4.83301,-44.24064 17.84497,-88.66718 39.03587,-129.93366 13.99924,-27.6014 33.41264,-53.99966 60.78441,-78.62939 -61.0042,21.16315 -102.08788,75.87667 -134.95256,144.4327 l -11.71075,76.39876 7.24951,23.42152 2.23062,61.89972 -15.05669,2.23062 16.172,28.99807 c 1.3012,0.55766 2.60239,1.11531 3.90359,1.67297 l 95.91669,29.55572 18.40262,-12.82606 46.28539,-1.11531 5.57655,2.78827 65.80331,-12.26841 1.67297,-11.15311"
         id="path2758"
         sodipodi:nodetypes="ccccccccccccccccccccccccccccccccccc" />
      <path
         style="fill:none;stroke:#d7d745;stroke-width:2.39244;stroke-opacity:1"
         d="M 624.01616,374.74429 C 560.65178,225.09941 494.18965,365.82118 476.23753,443.33588"
         id="path2805"
         sodipodi:nodetypes="cc" />
      <path
         style="fill:none;stroke:#d7d745;stroke-width:2.39244;stroke-opacity:1"
         d="m 538.69491,260.98263 c -80.74821,11.26085 -77.25384,79.87836 -92.0131,136.06787"
         id="path2809"
         sodipodi:nodetypes="cc" />
      <path
         style="fill:none;stroke:#d7d745;stroke-width:2.39244;stroke-opacity:1"
         d="m 512.48512,247.04125 c -94.84936,-41.90007 -149.78072,63.32622 -192.9487,211.90897 30.81853,18.1339 43.32794,68.52672 42.93945,141.64442"
         id="path2811"
         sodipodi:nodetypes="ccc" />
    </g>
    <path
       style="fill:#fece64;fill-opacity:1;stroke:#d7d745;stroke-width:2.39244;stroke-opacity:1"
       d="m 384.50325,794.93747 -7.52834,-51.5831"
       id="path16551" />
  </g>
</svg>
