<?xml version="1.0" encoding="UTF-8" standalone="no"?>
<!-- Created with Inkscape (http://www.inkscape.org/) -->

<svg
   width="210mm"
   height="297mm"
   viewBox="0 0 210 297"
   version="1.1"
   id="svg5"
   inkscape:version="1.2.1 (9c6d41e, 2022-07-14)"
   sodipodi:docname="ST.svg"
   xmlns:inkscape="http://www.inkscape.org/namespaces/inkscape"
   xmlns:sodipodi="http://sodipodi.sourceforge.net/DTD/sodipodi-0.dtd"
   xmlns="http://www.w3.org/2000/svg"
   xmlns:svg="http://www.w3.org/2000/svg">
  <sodipodi:namedview
     id="namedview7"
     pagecolor="#ffffff"
     bordercolor="#000000"
     borderopacity="0.25"
     inkscape:showpageshadow="2"
     inkscape:pageopacity="0.0"
     inkscape:pagecheckerboard="0"
     inkscape:deskcolor="#d1d1d1"
     inkscape:document-units="mm"
     showgrid="false"
     inkscape:zoom="0.41386281"
     inkscape:cx="196.92516"
     inkscape:cy="666.88766"
     inkscape:window-width="1440"
     inkscape:window-height="825"
     inkscape:window-x="0"
     inkscape:window-y="0"
     inkscape:window-maximized="1"
     inkscape:current-layer="layer1" />
  <defs
     id="defs2" />
  <g
     inkscape:label="Camada 1"
     inkscape:groupmode="layer"
     id="layer1">
    <text
       xml:space="preserve"
       style="font-size:186.79px;opacity:1;fill:#ff0000;fill-opacity:1;stroke:none;stroke-width:2.57819;stroke-opacity:1"
       x="86.795593"
       y="207.51244"
       id="text6479"><tspan
         sodipodi:role="line"
         id="tspan6477"
         style="fill:#ff0000;fill-opacity:1;stroke:none;stroke-width:2.57819;stroke-opacity:1"
         x="86.795593"
         y="207.51244">T</tspan></text>
    <path
       style="opacity:1;fill:#ff0000;fill-opacity:1;stroke:none;stroke-width:2.58936;stroke-opacity:1"
       d="m 12.362221,140.604 c 45.852497,30.76605 84.113061,17.59718 85.293281,-4.16064 2.406908,-21.94488 -25.753784,-22.49244 -48.194164,-27.0442 -21.819736,-3.8291 -35.087668,-14.350926 -36.86797,-33.863066 0.128441,-14.62843 6.339061,-25.51396 17.798322,-33.1696 30.28874,-16.824781 54.962362,-6.509805 80.20804,1.04016 l -0.18927,21.12779 C 83.154972,46.756104 44.38017,40.91304 32.937198,63.226894 c -0.414848,5.33509 -3.824369,6.8199 1.307565,19.28658 11.26567,11.53492 24.690806,11.19276 37.592509,13.72944 12.963529,1.34426 44.446548,1.51713 45.111038,39.880736 -4.89567,18.01492 -11.78587,24.98555 -19.286608,30.074 -23.082079,10.77849 -50.386284,12.81118 -85.645534,-1.63446 z"
       id="path461"
       sodipodi:nodetypes="cccccccccccccc" />
  </g>
</svg>
