<?xml version="1.0" encoding="UTF-8" standalone="no"?>
<!-- Created with Inkscape (http://www.inkscape.org/) -->

<svg
   width="210mm"
   height="297mm"
   viewBox="0 0 210 297"
   version="1.1"
   id="svg5"
   inkscape:version="1.2.1 (9c6d41e, 2022-07-14)"
   sodipodi:docname="ST.svg"
   xmlns:inkscape="http://www.inkscape.org/namespaces/inkscape"
   xmlns:sodipodi="http://sodipodi.sourceforge.net/DTD/sodipodi-0.dtd"
   xmlns="http://www.w3.org/2000/svg"
   xmlns:svg="http://www.w3.org/2000/svg">
  <sodipodi:namedview
     id="namedview7"
     pagecolor="#ffffff"
     bordercolor="#000000"
     borderopacity="0.25"
     inkscape:showpageshadow="2"
     inkscape:pageopacity="0.0"
     inkscape:pagecheckerboard="0"
     inkscape:deskcolor="#d1d1d1"
     inkscape:document-units="mm"
     showgrid="false"
     inkscape:zoom="0.41386281"
     inkscape:cx="199.34142"
     inkscape:cy="666.88766"
     inkscape:window-width="1440"
     inkscape:window-height="825"
     inkscape:window-x="0"
     inkscape:window-y="0"
     inkscape:window-maximized="1"
     inkscape:current-layer="layer1" />
  <defs
     id="defs2" />
  <g
     inkscape:label="Camada 1"
     inkscape:groupmode="layer"
     id="layer1">
    <text
       xml:space="preserve"
       style="font-size:384.303px;opacity:1;fill:#ff0000;fill-opacity:1;stroke:none;stroke-width:5.30438;stroke-opacity:1"
       x="-10.459256"
       y="294.6394"
       id="text6479"><tspan
         sodipodi:role="line"
         id="tspan6477"
         style="fill:#ff0000;fill-opacity:1;stroke:none;stroke-width:5.30438;stroke-opacity:1"
         x="-10.459256"
         y="294.6394">T</tspan></text>
    <path
       style="opacity:1;fill:#ff0000;fill-opacity:1;stroke:none;stroke-width:4.42786;stroke-opacity:1"
       d="M 14.917169,208.01765 C 93.325914,260.62824 158.75231,238.10919 160.77052,200.90286 164.88638,163.37664 116.73098,162.4403 78.357458,154.6567 41.045236,148.10885 18.35679,130.1163 15.312435,96.750138 15.532072,71.735201 26.152364,53.120722 45.747945,40.029412 97.542331,11.25868 139.73477,28.897515 182.90542,41.808108 l -0.32366,36.12897 C 135.97429,47.535738 69.668546,37.543981 50.100822,75.701135 c -0.709403,9.123125 -6.539755,11.662176 2.235955,32.980465 19.264551,19.72496 42.221807,19.13985 64.284003,23.47763 22.16792,2.29871 76.00455,2.59433 77.14085,68.19691 -8.3717,30.80591 -20.1541,42.72584 -32.98051,51.42719 -39.47086,18.43145 -86.161641,21.90739 -146.455709,-2.79496 z"
       id="path461"
       sodipodi:nodetypes="cccccccccccccc" />
  </g>
</svg>
